<?xml version="1.0" encoding="utf-8"?>
<!-- Generator: Adobe Illustrator 23.0.6, SVG Export Plug-In . SVG Version: 6.00 Build 0)  -->
<svg version="1.0" xmlns="http://www.w3.org/2000/svg" xmlns:xlink="http://www.w3.org/1999/xlink" x="0px" y="0px"
	 viewBox="0 0 3720 500" style="enable-background:new 0 0 3720 500;" xml:space="preserve">
<style type="text/css">
	.st0{fill:#707070;}
	.st1{fill-rule:evenodd;clip-rule:evenodd;fill:#C90526;}
	.st2{display:none;}
	.st3{display:inline;}
	.st4{display:inline;fill-rule:evenodd;clip-rule:evenodd;}
	.st5{display:inline;fill-rule:evenodd;clip-rule:evenodd;fill:#C90526;}
	.st6{fill-rule:evenodd;clip-rule:evenodd;}
</style>
<g id="Layer_1">
</g>
<g id="Cubase_Family">
	<g>
		<g>
			<path class="st0" d="M1710.4,356.1c0,50.9-16.4,104.2-90.1,104.2c-81.9,0-87.8-65.5-87.8-98.3V154.8c0-49.2,7.6-117,92.5-117
				c68.5,0,85.4,45.1,85.4,101.2v52.7h-54.4v-63.8c0-17-2.3-42.7-33.9-42.7c-27.5,0-34.5,21.1-34.5,45.1v235.3
				c0,38,8.8,47.4,33.4,47.4c31.6,0,34.5-24,34.5-48.6v-80.2h55V356.1z"/>
			<path class="st0" d="M1805.2,41.8v326.6c0,37.5,11.1,48,32.8,48c31,0,33.4-24,33.4-58.5v-316h53.8v313.1
				c0,77.8-32.8,106.5-89,106.5c-63.8,0-84.3-41.6-84.3-97.1V41.8H1805.2z"/>
			<path class="st0" d="M2070.3,41.8c57.4,0,62.6,22.2,62.6,82.5v51.5c0,31-1.8,57.4-45.1,60.9c36.9,2.9,45.1,18.1,45.1,56.8v74.9
				c0,62.6-5.9,86.6-73.7,86.6h-86.6V41.8H2070.3z M2025.2,215.1h24c24.6,0,30.4-7,30.4-43.9v-41c0-24.6-2.9-39.2-26.9-39.2h-27.5
				V215.1z M2025.2,404.1h28.1c26.3,0,27.5-3.5,27.5-39.2v-65.5c0-24.6-2.9-39.2-26.9-39.2h-28.7V404.1z"/>
			<path class="st0" d="M2305.5,455l-10.5-76.1h-62l-9.4,76.1h-53.3l58.5-413.2h66.1l63.8,413.2H2305.5z M2261.6,113.8l-22.8,214.8
				h49.2L2261.6,113.8z"/>
			<path class="st0" d="M2431.3,304v75.5c0,26.3,7,39.8,28.1,39.8c25.8,0,26.3-29.8,26.3-51.5c0-48-25.2-78.4-45.7-109.4l-22.2-33.9
				c-16.4-25.2-33.4-55-33.4-105.3c0-43.3,22.8-85.4,83.7-85.4c60.3,0,69.6,38.6,69.6,70.8v73.2h-49.7v-70.8
				c0-11.1-1.8-30.4-21.7-30.4c-26.3,0-26.9,22.8-26.9,42.1c0,42.1,17,67.3,36.3,96l29.3,43.3c25.2,36.9,36.3,70.2,36.3,101.8
				c0,24.6-1.2,103-81.9,103c-33.4,0-50.9-14-60.3-24.6c-17-19.9-18.1-41.6-18.1-65.5V304H2431.3z"/>
			<path class="st0" d="M2570,455V41.8h136.4v51.5H2625v121.1h72.6V266h-72v136.9h80.8V455H2570z"/>
		</g>
		<path class="st1" d="M1220.1,7.1l80.2,80.2c-82.2,5.6-147.1,74.1-147.1,157.7c0,87.1,70.3,157.7,157.3,158.1l-90.3,90.3L977,250.3
			L1220.1,7.1L1220.1,7.1z M1244.1,245.1c0-37.1,30.1-67.2,67.2-67.2c37.1,0,67.2,30.1,67.2,67.2c0,37.1-30.1,67.2-67.2,67.2
			C1274.1,312.2,1244.1,282.2,1244.1,245.1L1244.1,245.1z"/>
	</g>
	<g class="st2">
		<g class="st3">
			<path d="M1710.4,356.1c0,50.9-16.4,104.2-90.1,104.2c-81.9,0-87.8-65.5-87.8-98.3V154.8c0-49.2,7.6-117,92.5-117
				c68.5,0,85.4,45.1,85.4,101.2v52.7h-54.4v-63.8c0-17-2.3-42.7-33.9-42.7c-27.5,0-34.5,21.1-34.5,45.1v235.3
				c0,38,8.8,47.4,33.4,47.4c31.6,0,34.5-24,34.5-48.6v-80.2h55V356.1z"/>
			<path d="M1805.2,41.8v326.6c0,37.5,11.1,48,32.8,48c31,0,33.4-24,33.4-58.5v-316h53.8v313.1c0,77.8-32.8,106.5-89,106.5
				c-63.8,0-84.3-41.6-84.3-97.1V41.8H1805.2z"/>
			<path d="M2070.3,41.8c57.4,0,62.6,22.2,62.6,82.5v51.5c0,31-1.8,57.4-45.1,60.9c36.9,2.9,45.1,18.1,45.1,56.8v74.9
				c0,62.6-5.9,86.6-73.7,86.6h-86.6V41.8H2070.3z M2025.2,215.1h24c24.6,0,30.4-7,30.4-43.9v-41c0-24.6-2.9-39.2-26.9-39.2h-27.5
				V215.1z M2025.2,404.1h28.1c26.3,0,27.5-3.5,27.5-39.2v-65.5c0-24.6-2.9-39.2-26.9-39.2h-28.7V404.1z"/>
			<path d="M2305.5,455l-10.5-76.1h-62l-9.4,76.1h-53.3l58.5-413.2h66.1l63.8,413.2H2305.5z M2261.6,113.8l-22.8,214.8h49.2
				L2261.6,113.8z"/>
			<path d="M2431.3,304v75.5c0,26.3,7,39.8,28.1,39.8c25.8,0,26.3-29.8,26.3-51.5c0-48-25.2-78.4-45.7-109.4l-22.2-33.9
				c-16.4-25.2-33.4-55-33.4-105.3c0-43.3,22.8-85.4,83.7-85.4c60.3,0,69.6,38.6,69.6,70.8v73.2h-49.7v-70.8
				c0-11.1-1.8-30.4-21.7-30.4c-26.3,0-26.9,22.8-26.9,42.1c0,42.1,17,67.3,36.3,96l29.3,43.3c25.2,36.9,36.3,70.2,36.3,101.8
				c0,24.6-1.2,103-81.9,103c-33.4,0-50.9-14-60.3-24.6c-17-19.9-18.1-41.6-18.1-65.5V304H2431.3z"/>
			<path d="M2570,455V41.8h136.4v51.5H2625v121.1h72.6V266h-72v136.9h80.8V455H2570z"/>
		</g>
		<path class="st4" d="M1220.1,7.1l80.2,80.2c-82.2,5.6-147.1,74.1-147.1,157.7c0,87.1,70.3,157.7,157.3,158.1l-90.3,90.3L977,250.3
			L1220.1,7.1L1220.1,7.1z M1244.1,245.1c0-37.1,30.1-67.2,67.2-67.2c37.1,0,67.2,30.1,67.2,67.2c0,37.1-30.1,67.2-67.2,67.2
			C1274.1,312.2,1244.1,282.2,1244.1,245.1L1244.1,245.1z"/>
	</g>
	<g class="st2">
		<g class="st3">
			<path class="st0" d="M1681.1,356.1c0,50.9-16.4,104.2-90.1,104.2c-81.9,0-87.8-65.5-87.8-98.3V154.8c0-49.2,7.6-117,92.5-117
				c68.5,0,85.4,45.1,85.4,101.2v52.7h-54.4v-63.8c0-17-2.3-42.7-33.9-42.7c-27.5,0-34.5,21.1-34.5,45.1v235.3
				c0,38,8.8,47.4,33.4,47.4c31.6,0,34.5-24,34.5-48.6v-80.2h55V356.1z"/>
			<path class="st0" d="M1775.9,41.8v326.6c0,37.5,11.1,48,32.8,48c31,0,33.4-24,33.4-58.5v-316h53.8v313.1
				c0,77.8-32.8,106.5-89,106.5c-63.8,0-84.3-41.6-84.3-97.1V41.8H1775.9z"/>
			<path class="st0" d="M2041,41.8c57.4,0,62.6,22.2,62.6,82.5v51.5c0,31-1.8,57.4-45.1,60.9c36.9,2.9,45.1,18.1,45.1,56.8v74.9
				c0,62.6-5.9,86.6-73.7,86.6h-86.6V41.8H2041z M1995.9,215.1h24c24.6,0,30.4-7,30.4-43.9v-41c0-24.6-2.9-39.2-26.9-39.2h-27.5
				V215.1z M1995.9,404.1h28.1c26.3,0,27.5-3.5,27.5-39.2v-65.5c0-24.6-2.9-39.2-26.9-39.2h-28.7V404.1z"/>
			<path class="st0" d="M2276.2,455l-10.5-76.1h-62l-9.4,76.1H2141l58.5-413.2h66.1l63.8,413.2H2276.2z M2232.3,113.8l-22.8,214.8
				h49.2L2232.3,113.8z"/>
			<path class="st0" d="M2402,304v75.5c0,26.3,7,39.8,28.1,39.8c25.8,0,26.3-29.8,26.3-51.5c0-48-25.2-78.4-45.7-109.4l-22.2-33.9
				c-16.4-25.2-33.4-55-33.4-105.3c0-43.3,22.8-85.4,83.7-85.4c60.3,0,69.6,38.6,69.6,70.8v73.2h-49.7v-70.8
				c0-11.1-1.8-30.4-21.7-30.4c-26.3,0-26.9,22.8-26.9,42.1c0,42.1,17,67.3,36.3,96l29.3,43.3c25.2,36.9,36.3,70.2,36.3,101.8
				c0,24.6-1.2,103-81.9,103c-33.4,0-50.9-14-60.3-24.6c-17-19.9-18.1-41.6-18.1-65.5V304H2402z"/>
			<path class="st0" d="M2540.7,455V41.8h136.4v51.5h-81.3v121.1h72.6V266h-72v136.9h80.8V455H2540.7z"/>
			<path class="st0" d="M2735.7,253.9v-26"/>
		</g>
		<path class="st5" d="M1190.8,7.1l80.2,80.2c-82.2,5.6-147.1,74.1-147.1,157.7c0,87.1,70.3,157.7,157.3,158.1l-90.3,90.3
			L947.7,250.3L1190.8,7.1L1190.8,7.1z M1214.7,245.1c0-37.1,30.1-67.2,67.2-67.2c37.1,0,67.2,30.1,67.2,67.2
			c0,37.1-30.1,67.2-67.2,67.2C1244.8,312.2,1214.7,282.2,1214.7,245.1L1214.7,245.1z"/>
	</g>
	<g class="st2">
		<g class="st3">
			<path class="st0" d="M1227.9,356.1c0,50.9-16.4,104.2-90.1,104.2c-81.9,0-87.8-65.5-87.8-98.3V154.8c0-49.2,7.6-117,92.5-117
				c68.5,0,85.4,45.1,85.4,101.2v52.7h-54.4v-63.8c0-17-2.3-42.7-33.9-42.7c-27.5,0-34.5,21.1-34.5,45.1v235.3
				c0,38,8.8,47.4,33.4,47.4c31.6,0,34.5-24,34.5-48.6v-80.2h55V356.1z"/>
			<path class="st0" d="M1322.7,41.8v326.6c0,37.5,11.1,48,32.8,48c31,0,33.4-24,33.4-58.5v-316h53.8v313.1
				c0,77.8-32.8,106.5-89,106.5c-63.8,0-84.3-41.6-84.3-97.1V41.8H1322.7z"/>
			<path class="st0" d="M1587.8,41.8c57.4,0,62.6,22.2,62.6,82.5v51.5c0,31-1.8,57.4-45.1,60.9c36.9,2.9,45.1,18.1,45.1,56.8v74.9
				c0,62.6-5.9,86.6-73.7,86.6H1490V41.8H1587.8z M1542.7,215.1h24c24.6,0,30.4-7,30.4-43.9v-41c0-24.6-2.9-39.2-26.9-39.2h-27.5
				V215.1z M1542.7,404.1h28.1c26.3,0,27.5-3.5,27.5-39.2v-65.5c0-24.6-2.9-39.2-26.9-39.2h-28.7V404.1z"/>
			<path class="st0" d="M1823,455l-10.5-76.1h-62l-9.4,76.1h-53.3l58.5-413.2h66.1l63.8,413.2H1823z M1779.1,113.8l-22.8,214.8h49.2
				L1779.1,113.8z"/>
			<path class="st0" d="M1948.8,304v75.5c0,26.3,7,39.8,28.1,39.8c25.8,0,26.3-29.8,26.3-51.5c0-48-25.2-78.4-45.7-109.4l-22.2-33.9
				c-16.4-25.2-33.4-55-33.4-105.3c0-43.3,22.8-85.4,83.7-85.4c60.3,0,69.6,38.6,69.6,70.8v73.2h-49.7v-70.8
				c0-11.1-1.8-30.4-21.7-30.4c-26.3,0-26.9,22.8-26.9,42.1c0,42.1,17,67.3,36.3,96l29.3,43.3c25.2,36.9,36.3,70.2,36.3,101.8
				c0,24.6-1.2,103-81.9,103c-33.4,0-50.9-14-60.3-24.6c-17-19.9-18.1-41.6-18.1-65.5V304H1948.8z"/>
			<path class="st0" d="M2087.5,455V41.8h136.4v51.5h-81.3v121.1h72.6V266h-72v136.9h80.8V455H2087.5z"/>
			<path class="st0" d="M2444.5,41.8c45.1,0,56.2,19.3,56.2,61.4v87.8c0,55-2.3,76.7-55,76.7h-54.4V455H2338V41.8H2444.5z
				 M2391.8,218.6h34.5c14.6,0,19.3-4.1,19.3-18.1v-87.8c0-15.2-3.5-20.5-20.5-20.5h-33.4V218.6z"/>
			<path class="st0" d="M2642.9,455c-7-38.6-8.2-47.4-8.2-86.6V331c0-26.9,0-66.1-26.3-66.1h-25.7V455h-54.4V41.8h89.5
				c51.5,0,73.7,8.8,73.7,80.2v51.5c0,67.9-24,69.1-49.7,72c38.6,1.8,47.4,22.8,47.4,73.7v54.4c0,46.8,1.2,55.6,10.5,81.3H2642.9z
				 M2583.2,219.2h27.5c23.4,0,26.9-19.9,26.9-45.6v-41c0-25.8,0-41-19.3-41h-35.1V219.2z"/>
			<path class="st0" d="M2908,362.6c0,80.2-43.3,96.6-90.1,96.6s-83.1-19.3-83.1-96.6V146c0-37.5,4.7-107.1,89-107.1
				c73.7,0,84.3,53.3,84.3,108.3V362.6z M2854.1,147.8c0-43.3-4.1-61.4-31.6-61.4c-33.4,0-33.4,29.3-33.4,48.6v235.9
				c0,22.2,3.5,43.3,31.6,43.3c32.2,0,33.4-25.7,33.4-49.2V147.8z"/>
			<path class="st0" d="M3003.6,455V253.9h-29.4v-26c6.8-0.8,34-3.4,40-38.1h23V455H3003.6z"/>
			<path class="st0" d="M3188.9,397.7c0,26.8-3.8,37.3-14.7,47.2c-11.3,9.8-26.4,12.8-40.7,12.8c-8.3,0-41.9-0.4-51.3-31.7
				c-2.6-8.3-2.6-15.8-2.6-32.1V240c0-23,6.4-54.7,55.5-54.7c49.4,0,53.9,32.4,53.9,56.6V397.7z M3156.4,239.2
				c0-15.5-2.3-28.3-22.3-28.3c-16.2,0-22.3,9.1-22.3,23.8v170.1c0,14,2.3,25.3,22.3,25.3c14.7,0,22.3-6.4,22.3-24.1V239.2z"/>
		</g>
		<path class="st5" d="M737.6,7.1l80.2,80.2c-82.2,5.6-147.1,74.1-147.1,157.7c0,87.1,70.3,157.7,157.3,158.1l-90.3,90.3
			L494.5,250.3L737.6,7.1L737.6,7.1z M761.6,245.1c0-37.1,30.1-67.2,67.2-67.2c37.1,0,67.2,30.1,67.2,67.2
			c0,37.1-30.1,67.2-67.2,67.2C791.7,312.2,761.6,282.2,761.6,245.1L761.6,245.1z"/>
	</g>
	<g class="st2">
		<g class="st3">
			<path d="M1227.9,356.1c0,50.9-16.4,104.2-90.1,104.2c-81.9,0-87.8-65.5-87.8-98.3V154.8c0-49.2,7.6-117,92.5-117
				c68.5,0,85.4,45.1,85.4,101.2v52.7h-54.4v-63.8c0-17-2.3-42.7-33.9-42.7c-27.5,0-34.5,21.1-34.5,45.1v235.3
				c0,38,8.8,47.4,33.4,47.4c31.6,0,34.5-24,34.5-48.6v-80.2h55V356.1z"/>
			<path d="M1322.7,41.8v326.6c0,37.5,11.1,48,32.8,48c31,0,33.4-24,33.4-58.5v-316h53.8v313.1c0,77.8-32.8,106.5-89,106.5
				c-63.8,0-84.3-41.6-84.3-97.1V41.8H1322.7z"/>
			<path d="M1587.8,41.8c57.4,0,62.6,22.2,62.6,82.5v51.5c0,31-1.8,57.4-45.1,60.9c36.9,2.9,45.1,18.1,45.1,56.8v74.9
				c0,62.6-5.9,86.6-73.7,86.6H1490V41.8H1587.8z M1542.7,215.1h24c24.6,0,30.4-7,30.4-43.9v-41c0-24.6-2.9-39.2-26.9-39.2h-27.5
				V215.1z M1542.7,404.1h28.1c26.3,0,27.5-3.5,27.5-39.2v-65.5c0-24.6-2.9-39.2-26.9-39.2h-28.7V404.1z"/>
			<path d="M1823,455l-10.5-76.1h-62l-9.4,76.1h-53.3l58.5-413.2h66.1l63.8,413.2H1823z M1779.1,113.8l-22.8,214.8h49.2
				L1779.1,113.8z"/>
			<path d="M1948.8,304v75.5c0,26.3,7,39.8,28.1,39.8c25.8,0,26.3-29.8,26.3-51.5c0-48-25.2-78.4-45.7-109.4l-22.2-33.9
				c-16.4-25.2-33.4-55-33.4-105.3c0-43.3,22.8-85.4,83.7-85.4c60.3,0,69.6,38.6,69.6,70.8v73.2h-49.7v-70.8
				c0-11.1-1.8-30.4-21.7-30.4c-26.3,0-26.9,22.8-26.9,42.1c0,42.1,17,67.3,36.3,96l29.3,43.3c25.2,36.9,36.3,70.2,36.3,101.8
				c0,24.6-1.2,103-81.9,103c-33.4,0-50.9-14-60.3-24.6c-17-19.9-18.1-41.6-18.1-65.5V304H1948.8z"/>
			<path d="M2087.5,455V41.8h136.4v51.5h-81.3v121.1h72.6V266h-72v136.9h80.8V455H2087.5z"/>
			<path d="M2444.5,41.8c45.1,0,56.2,19.3,56.2,61.4v87.8c0,55-2.3,76.7-55,76.7h-54.4V455H2338V41.8H2444.5z M2391.8,218.6h34.5
				c14.6,0,19.3-4.1,19.3-18.1v-87.8c0-15.2-3.5-20.5-20.5-20.5h-33.4V218.6z"/>
			<path d="M2642.9,455c-7-38.6-8.2-47.4-8.2-86.6V331c0-26.9,0-66.1-26.3-66.1h-25.7V455h-54.4V41.8h89.5
				c51.5,0,73.7,8.8,73.7,80.2v51.5c0,67.9-24,69.1-49.7,72c38.6,1.8,47.4,22.8,47.4,73.7v54.4c0,46.8,1.2,55.6,10.5,81.3H2642.9z
				 M2583.2,219.2h27.5c23.4,0,26.9-19.9,26.9-45.6v-41c0-25.8,0-41-19.3-41h-35.1V219.2z"/>
			<path d="M2908,362.6c0,80.2-43.3,96.6-90.1,96.6s-83.1-19.3-83.1-96.6V146c0-37.5,4.7-107.1,89-107.1
				c73.7,0,84.3,53.3,84.3,108.3V362.6z M2854.1,147.8c0-43.3-4.1-61.4-31.6-61.4c-33.4,0-33.4,29.3-33.4,48.6v235.9
				c0,22.2,3.5,43.3,31.6,43.3c32.2,0,33.4-25.7,33.4-49.2V147.8z"/>
			<path d="M3003.6,455V253.9h-29.4v-26c6.8-0.8,34-3.4,40-38.1h23V455H3003.6z"/>
			<path d="M3188.9,397.7c0,26.8-3.8,37.3-14.7,47.2c-11.3,9.8-26.4,12.8-40.7,12.8c-8.3,0-41.9-0.4-51.3-31.7
				c-2.6-8.3-2.6-15.8-2.6-32.1V240c0-23,6.4-54.7,55.5-54.7c49.4,0,53.9,32.4,53.9,56.6V397.7z M3156.4,239.2
				c0-15.5-2.3-28.3-22.3-28.3c-16.2,0-22.3,9.1-22.3,23.8v170.1c0,14,2.3,25.3,22.3,25.3c14.7,0,22.3-6.4,22.3-24.1V239.2z"/>
		</g>
		<path class="st4" d="M737.6,7.1l80.2,80.2c-82.2,5.6-147.1,74.1-147.1,157.7c0,87.1,70.3,157.7,157.3,158.1l-90.3,90.3
			L494.5,250.3L737.6,7.1L737.6,7.1z M761.6,245.1c0-37.1,30.1-67.2,67.2-67.2c37.1,0,67.2,30.1,67.2,67.2
			c0,37.1-30.1,67.2-67.2,67.2C791.7,312.2,761.6,282.2,761.6,245.1L761.6,245.1z"/>
	</g>
	<g class="st2">
		<g class="st3">
			<path class="st0" d="M990.9,356.2c0,50.9-16.4,104.2-90.1,104.2c-81.9,0-87.8-65.5-87.8-98.3V154.8c0-49.2,7.6-117,92.5-117
				c68.5,0,85.4,45.1,85.4,101.2v52.7h-54.4v-63.8c0-17-2.3-42.7-33.9-42.7c-27.5,0-34.5,21.1-34.5,45.1v235.3
				c0,38,8.8,47.4,33.4,47.4c31.6,0,34.5-24,34.5-48.6v-80.2h55V356.2z"/>
			<path class="st0" d="M1085.7,41.9v326.6c0,37.5,11.1,48,32.8,48c31,0,33.4-24,33.4-58.5v-316h53.8V355
				c0,77.8-32.8,106.5-89,106.5c-63.8,0-84.3-41.6-84.3-97.1V41.9H1085.7z"/>
			<path class="st0" d="M1350.8,41.9c57.4,0,62.6,22.2,62.6,82.5v51.5c0,31-1.8,57.4-45.1,60.9c36.9,2.9,45.1,18.1,45.1,56.8v74.9
				c0,62.6-5.9,86.6-73.7,86.6h-86.6V41.9H1350.8z M1305.8,215.1h24c24.6,0,30.4-7,30.4-43.9v-41c0-24.6-2.9-39.2-26.9-39.2h-27.5
				V215.1z M1305.8,404.1h28.1c26.3,0,27.5-3.5,27.5-39.2v-65.5c0-24.6-2.9-39.2-26.9-39.2h-28.7V404.1z"/>
			<path class="st0" d="M1580.2,455.1l-10.5-76.1h-62l-9.4,76.1H1445l58.5-413.2h66.1l63.8,413.2H1580.2z M1536.3,113.9l-22.8,214.8
				h49.2L1536.3,113.9z"/>
			<path class="st0" d="M1711.9,304.1v75.5c0,26.3,7,39.8,28.1,39.8c25.8,0,26.3-29.8,26.3-51.5c0-48-25.2-78.4-45.7-109.4
				l-22.2-33.9c-16.4-25.2-33.4-55-33.4-105.3c0-43.3,22.8-85.4,83.7-85.4c60.3,0,69.6,38.6,69.6,70.8v73.1h-49.7v-70.8
				c0-11.1-1.8-30.4-21.7-30.4c-26.3,0-26.9,22.8-26.9,42.1c0,42.1,17,67.3,36.3,96l29.3,43.3c25.2,36.9,36.3,70.2,36.3,101.8
				c0,24.6-1.2,103-81.9,103c-33.4,0-50.9-14-60.3-24.6c-17-19.9-18.1-41.6-18.1-65.5v-68.5H1711.9z"/>
			<path class="st0" d="M1856.4,455.1V41.9h136.4v51.5h-81.3v121.1h72.6V266h-72V403h80.8v52.1H1856.4z"/>
			<path class="st0" d="M2250.8,455.1l-10.5-76.1h-62l-9.4,76.1h-53.3l58.5-413.2h66.1l63.8,413.2H2250.8z M2206.9,113.9
				l-22.8,214.8h49.2L2206.9,113.9z"/>
			<path class="st0" d="M2457.4,455.1c-7-38.6-8.2-47.4-8.2-86.6V331c0-26.9,0-66.1-26.3-66.1h-25.7v190.2h-54.4V41.9h89.5
				c51.5,0,73.7,8.8,73.7,80.2v51.5c0,67.9-24,69.1-49.7,72c38.6,1.8,47.4,22.8,47.4,73.7v54.4c0,46.8,1.2,55.6,10.5,81.3H2457.4z
				 M2397.7,219.2h27.5c23.4,0,26.9-19.9,26.9-45.6v-41c0-25.8,0-41-19.3-41h-35.1V219.2z"/>
			<path class="st0" d="M2638.8,90.5v364.6h-55.6V90.5h-62.6V41.9h182.6v48.6H2638.8z"/>
			<path class="st0" d="M2724.8,455.1V41.9h53.8v413.2H2724.8z"/>
			<path class="st0" d="M2870,304.1v75.5c0,26.3,7,39.8,28.1,39.8c25.8,0,26.3-29.8,26.3-51.5c0-48-25.2-78.4-45.7-109.4l-22.2-33.9
				c-16.4-25.2-33.4-55-33.4-105.3c0-43.3,22.8-85.4,83.7-85.4c60.3,0,69.6,38.6,69.6,70.8v73.1h-49.7v-70.8
				c0-11.1-1.8-30.4-21.7-30.4c-26.3,0-26.9,22.8-26.9,42.1c0,42.1,17,67.3,36.3,96l29.3,43.3c25.2,36.9,36.3,70.2,36.3,101.8
				c0,24.6-1.2,103-81.9,103c-33.4,0-50.9-14-60.3-24.6c-17-19.9-18.1-41.6-18.1-65.5v-68.5H2870z"/>
			<path class="st0" d="M3108.7,90.5v364.6h-55.6V90.5h-62.6V41.9h182.6v48.6H3108.7z"/>
			<path class="st0" d="M3216.1,455.1V254h-29.4v-26c6.8-0.8,34-3.4,40-38.1h23v265.2H3216.1z"/>
			<path class="st0" d="M3401.3,397.7c0,26.8-3.8,37.3-14.7,47.2c-11.3,9.8-26.4,12.8-40.7,12.8c-8.3,0-41.9-0.4-51.3-31.7
				c-2.6-8.3-2.6-15.8-2.6-32.1V240c0-23,6.4-54.7,55.5-54.7c49.4,0,53.9,32.4,53.9,56.6V397.7z M3368.9,239.3
				c0-15.5-2.3-28.3-22.3-28.3c-16.2,0-22.3,9.1-22.3,23.8v170.1c0,14,2.3,25.3,22.3,25.3c14.7,0,22.3-6.4,22.3-24.1V239.3z"/>
		</g>
		<path class="st5" d="M525.2,7.1l80.2,80.2c-82.2,5.6-147.1,74.1-147.1,157.7c0,87.1,70.3,157.7,157.3,158.1l-90.3,90.3L282,250.3
			L525.2,7.1L525.2,7.1z M549.1,245.1c0-37.1,30.1-67.2,67.2-67.2c37.1,0,67.2,30.1,67.2,67.2c0,37.1-30.1,67.2-67.2,67.2
			C579.2,312.2,549.1,282.2,549.1,245.1L549.1,245.1z"/>
	</g>
	<g class="st2">
		<g class="st3">
			<path d="M990.9,356.2c0,50.9-16.4,104.2-90.1,104.2c-81.9,0-87.8-65.5-87.8-98.3V154.8c0-49.2,7.6-117,92.5-117
				c68.5,0,85.4,45.1,85.4,101.2v52.7h-54.4v-63.8c0-17-2.3-42.7-33.9-42.7c-27.5,0-34.5,21.1-34.5,45.1v235.3
				c0,38,8.8,47.4,33.4,47.4c31.6,0,34.5-24,34.5-48.6v-80.2h55V356.2z"/>
			<path d="M1085.7,41.9v326.6c0,37.5,11.1,48,32.8,48c31,0,33.4-24,33.4-58.5v-316h53.8V355c0,77.8-32.8,106.5-89,106.5
				c-63.8,0-84.3-41.6-84.3-97.1V41.9H1085.7z"/>
			<path d="M1350.8,41.9c57.4,0,62.6,22.2,62.6,82.5v51.5c0,31-1.8,57.4-45.1,60.9c36.9,2.9,45.1,18.1,45.1,56.8v74.9
				c0,62.6-5.9,86.6-73.7,86.6h-86.6V41.9H1350.8z M1305.8,215.1h24c24.6,0,30.4-7,30.4-43.9v-41c0-24.6-2.9-39.2-26.9-39.2h-27.5
				V215.1z M1305.8,404.1h28.1c26.3,0,27.5-3.5,27.5-39.2v-65.5c0-24.6-2.9-39.2-26.9-39.2h-28.7V404.1z"/>
			<path d="M1580.2,455.1l-10.5-76.1h-62l-9.4,76.1H1445l58.5-413.2h66.1l63.8,413.2H1580.2z M1536.3,113.9l-22.8,214.8h49.2
				L1536.3,113.9z"/>
			<path d="M1711.9,304.1v75.5c0,26.3,7,39.8,28.1,39.8c25.8,0,26.3-29.8,26.3-51.5c0-48-25.2-78.4-45.7-109.4l-22.2-33.9
				c-16.4-25.2-33.4-55-33.4-105.3c0-43.3,22.8-85.4,83.7-85.4c60.3,0,69.6,38.6,69.6,70.8v73.1h-49.7v-70.8
				c0-11.1-1.8-30.4-21.7-30.4c-26.3,0-26.9,22.8-26.9,42.1c0,42.1,17,67.3,36.3,96l29.3,43.3c25.2,36.9,36.3,70.2,36.3,101.8
				c0,24.6-1.2,103-81.9,103c-33.4,0-50.9-14-60.3-24.6c-17-19.9-18.1-41.6-18.1-65.5v-68.5H1711.9z"/>
			<path d="M1856.4,455.1V41.9h136.4v51.5h-81.3v121.1h72.6V266h-72V403h80.8v52.1H1856.4z"/>
			<path d="M2250.8,455.1l-10.5-76.1h-62l-9.4,76.1h-53.3l58.5-413.2h66.1l63.8,413.2H2250.8z M2206.9,113.9l-22.8,214.8h49.2
				L2206.9,113.9z"/>
			<path d="M2457.4,455.1c-7-38.6-8.2-47.4-8.2-86.6V331c0-26.9,0-66.1-26.3-66.1h-25.7v190.2h-54.4V41.9h89.5
				c51.5,0,73.7,8.8,73.7,80.2v51.5c0,67.9-24,69.1-49.7,72c38.6,1.8,47.4,22.8,47.4,73.7v54.4c0,46.8,1.2,55.6,10.5,81.3H2457.4z
				 M2397.7,219.2h27.5c23.4,0,26.9-19.9,26.9-45.6v-41c0-25.8,0-41-19.3-41h-35.1V219.2z"/>
			<path d="M2638.8,90.5v364.6h-55.6V90.5h-62.6V41.9h182.6v48.6H2638.8z"/>
			<path d="M2724.8,455.1V41.9h53.8v413.2H2724.8z"/>
			<path d="M2870,304.1v75.5c0,26.3,7,39.8,28.1,39.8c25.8,0,26.3-29.8,26.3-51.5c0-48-25.2-78.4-45.7-109.4l-22.2-33.9
				c-16.4-25.2-33.4-55-33.4-105.3c0-43.3,22.8-85.4,83.7-85.4c60.3,0,69.6,38.6,69.6,70.8v73.1h-49.7v-70.8
				c0-11.1-1.8-30.4-21.7-30.4c-26.3,0-26.9,22.8-26.9,42.1c0,42.1,17,67.3,36.3,96l29.3,43.3c25.2,36.9,36.3,70.2,36.3,101.8
				c0,24.6-1.2,103-81.9,103c-33.4,0-50.9-14-60.3-24.6c-17-19.9-18.1-41.6-18.1-65.5v-68.5H2870z"/>
			<path d="M3108.7,90.5v364.6h-55.6V90.5h-62.6V41.9h182.6v48.6H3108.7z"/>
			<path d="M3216.1,455.1V254h-29.4v-26c6.8-0.8,34-3.4,40-38.1h23v265.2H3216.1z"/>
			<path d="M3401.3,397.7c0,26.8-3.8,37.3-14.7,47.2c-11.3,9.8-26.4,12.8-40.7,12.8c-8.3,0-41.9-0.4-51.3-31.7
				c-2.6-8.3-2.6-15.8-2.6-32.1V240c0-23,6.4-54.7,55.5-54.7c49.4,0,53.9,32.4,53.9,56.6V397.7z M3368.9,239.3
				c0-15.5-2.3-28.3-22.3-28.3c-16.2,0-22.3,9.1-22.3,23.8v170.1c0,14,2.3,25.3,22.3,25.3c14.7,0,22.3-6.4,22.3-24.1V239.3z"/>
		</g>
		<path class="st4" d="M525.2,7.1l80.2,80.2c-82.2,5.6-147.1,74.1-147.1,157.7c0,87.1,70.3,157.7,157.3,158.1l-90.3,90.3L282,250.3
			L525.2,7.1L525.2,7.1z M549.1,245.1c0-37.1,30.1-67.2,67.2-67.2c37.1,0,67.2,30.1,67.2,67.2c0,37.1-30.1,67.2-67.2,67.2
			C579.2,312.2,549.1,282.2,549.1,245.1L549.1,245.1z"/>
	</g>
	<g class="st2">
		<g class="st3">
			<g>
				<path class="st0" d="M727.6,356.2c0,50.9-16.4,104.2-90.1,104.2c-81.9,0-87.8-65.5-87.8-98.3V154.8c0-49.2,7.6-117,92.5-117
					c68.5,0,85.4,45.1,85.4,101.2v52.7h-54.4v-63.8c0-17-2.3-42.7-33.9-42.7c-27.5,0-34.5,21.1-34.5,45.1v235.3
					c0,38,8.8,47.4,33.4,47.4c31.6,0,34.5-24,34.5-48.6v-80.2h55V356.2z"/>
				<path class="st0" d="M822.4,41.9v326.6c0,37.5,11.1,48,32.8,48c31,0,33.4-24,33.4-58.5v-316h53.8V355
					c0,77.8-32.8,106.5-89,106.5c-63.8,0-84.3-41.6-84.3-97.1V41.9H822.4z"/>
				<path class="st0" d="M1087.5,41.9c57.4,0,62.6,22.2,62.6,82.5v51.5c0,31-1.8,57.4-45.1,60.9c36.9,2.9,45.1,18.1,45.1,56.8v74.9
					c0,62.6-5.9,86.6-73.7,86.6h-86.6V41.9H1087.5z M1042.4,215.1h24c24.6,0,30.4-7,30.4-43.9v-41c0-24.6-2.9-39.2-26.9-39.2h-27.5
					V215.1z M1042.4,404.1h28.1c26.3,0,27.5-3.5,27.5-39.2v-65.5c0-24.6-2.9-39.2-26.9-39.2h-28.7V404.1z"/>
				<path class="st0" d="M1322.7,455.1l-10.5-76.1h-62l-9.4,76.1h-53.3l58.5-413.2h66.1l63.8,413.2H1322.7z M1278.8,113.9
					L1256,328.6h49.2L1278.8,113.9z"/>
				<path class="st0" d="M1448.5,304.1v75.5c0,26.3,7,39.8,28.1,39.8c25.8,0,26.3-29.8,26.3-51.5c0-48-25.2-78.4-45.7-109.4
					l-22.2-33.9c-16.4-25.2-33.4-55-33.4-105.3c0-43.3,22.8-85.4,83.7-85.4c60.3,0,69.6,38.6,69.6,70.8v73.2h-49.7v-70.8
					c0-11.1-1.8-30.4-21.7-30.4c-26.3,0-26.9,22.8-26.9,42.1c0,42.1,17,67.3,36.3,96l29.3,43.3c25.2,36.9,36.3,70.2,36.3,101.8
					c0,24.6-1.2,103-81.9,103c-33.4,0-50.9-14-60.3-24.6c-17-19.9-18.1-41.6-18.1-65.5v-68.5H1448.5z"/>
				<path class="st0" d="M1587.2,455.1V41.9h136.4v51.5h-81.3v121.1h72.6V266h-72V403h80.8v52.1H1587.2z"/>
				<path class="st0" d="M1844.1,455.1V41.9h136.4v51.5h-81.3v121.1h72.6V266h-72V403h80.8v52.1H1844.1z"/>
				<path class="st0" d="M2022.6,455.1V41.9h54.4v362.3h90.1v50.9H2022.6z"/>
				<path class="st0" d="M2193.5,455.1V41.9h136.4v51.5h-81.3v121.1h72.6V266h-72V403h80.8v52.1H2193.5z"/>
				<path class="st0" d="M2561.6,455.1c0,0,0-263.4-2.3-332.4c-11.1,76.7-45.1,332.4-45.1,332.4h-46.2l-46.8-332.4v332.4h-50.9V41.9
					h77.8l43.3,273.9l40.4-273.9h80.2v413.2H2561.6z"/>
				<path class="st0" d="M2668.6,455.1V41.9H2805v51.5h-81.3v121.1h72.6V266h-72V403h80.8v52.1H2668.6z"/>
				<path class="st0" d="M2957.2,455.1l-67.3-303.1c0.6,58.5,5.9,303.1,5.9,303.1h-50.9V41.9h58.5l66.1,281.5
					c0,0-2.9-255.7-3.5-281.5h51.5v413.2H2957.2z"/>
				<path class="st0" d="M3159,90.5v364.6h-55.6V90.5h-62.6V41.9h182.6v48.6H3159z"/>
				<path class="st0" d="M3298.9,304.1v75.5c0,26.3,7,39.8,28.1,39.8c25.8,0,26.3-29.8,26.3-51.5c0-48-25.2-78.4-45.7-109.4
					l-22.2-33.9c-16.4-25.2-33.4-55-33.4-105.3c0-43.3,22.8-85.4,83.7-85.4c60.3,0,69.6,38.6,69.6,70.8v73.2h-49.7v-70.8
					c0-11.1-1.8-30.4-21.7-30.4c-26.3,0-26.9,22.8-26.9,42.1c0,42.1,17,67.3,36.3,96l29.3,43.3c25.2,36.9,36.3,70.2,36.3,101.8
					c0,24.6-1.2,103-81.9,103c-33.4,0-50.9-14-60.3-24.6c-17-19.9-18.1-41.6-18.1-65.5v-68.5H3298.9z"/>
				<path class="st0" d="M3479.4,455.1V254H3450v-26c6.8-0.8,34-3.4,40-38.1h23v265.2H3479.4z"/>
				<path class="st0" d="M3664.7,397.7c0,26.8-3.8,37.3-14.7,47.2c-11.3,9.8-26.4,12.8-40.7,12.8c-8.3,0-41.9-0.4-51.3-31.7
					c-2.6-8.3-2.6-15.8-2.6-32.1V240c0-23,6.4-54.7,55.5-54.7c49.4,0,53.9,32.4,53.9,56.6V397.7z M3632.2,239.3
					c0-15.5-2.3-28.3-22.3-28.3c-16.2,0-22.3,9.1-22.3,23.8v170.1c0,14,2.3,25.3,22.3,25.3c14.7,0,22.3-6.4,22.3-24.1V239.3z"/>
			</g>
			<path class="st1" d="M261.8,7.1L342,87.3c-82.2,5.6-147.1,74.1-147.1,157.7c0,87.1,70.3,157.7,157.3,158.1l-90.3,90.3L18.7,250.3
				L261.8,7.1L261.8,7.1z M285.8,245.1c0-37.1,30.1-67.2,67.2-67.2c37.1,0,67.2,30.1,67.2,67.2c0,37.1-30.1,67.2-67.2,67.2
				C315.9,312.2,285.8,282.2,285.8,245.1L285.8,245.1z"/>
		</g>
	</g>
	<g class="st2">
		<g class="st3">
			<g>
				<path d="M727.6,356.2c0,50.9-16.4,104.2-90.1,104.2c-81.9,0-87.8-65.5-87.8-98.3V154.8c0-49.2,7.6-117,92.5-117
					c68.5,0,85.4,45.1,85.4,101.2v52.7h-54.4v-63.8c0-17-2.3-42.7-33.9-42.7c-27.5,0-34.5,21.1-34.5,45.1v235.3
					c0,38,8.8,47.4,33.4,47.4c31.6,0,34.5-24,34.5-48.6v-80.2h55V356.2z"/>
				<path d="M822.4,41.9v326.6c0,37.5,11.1,48,32.8,48c31,0,33.4-24,33.4-58.5v-316h53.8V355c0,77.8-32.8,106.5-89,106.5
					c-63.8,0-84.3-41.6-84.3-97.1V41.9H822.4z"/>
				<path d="M1087.5,41.9c57.4,0,62.6,22.2,62.6,82.5v51.5c0,31-1.8,57.4-45.1,60.9c36.9,2.9,45.1,18.1,45.1,56.8v74.9
					c0,62.6-5.9,86.6-73.7,86.6h-86.6V41.9H1087.5z M1042.4,215.1h24c24.6,0,30.4-7,30.4-43.9v-41c0-24.6-2.9-39.2-26.9-39.2h-27.5
					V215.1z M1042.4,404.1h28.1c26.3,0,27.5-3.5,27.5-39.2v-65.5c0-24.6-2.9-39.2-26.9-39.2h-28.7V404.1z"/>
				<path d="M1322.7,455.1l-10.5-76.1h-62l-9.4,76.1h-53.3l58.5-413.2h66.1l63.8,413.2H1322.7z M1278.8,113.9L1256,328.6h49.2
					L1278.8,113.9z"/>
				<path d="M1448.5,304.1v75.5c0,26.3,7,39.8,28.1,39.8c25.8,0,26.3-29.8,26.3-51.5c0-48-25.2-78.4-45.7-109.4l-22.2-33.9
					c-16.4-25.2-33.4-55-33.4-105.3c0-43.3,22.8-85.4,83.7-85.4c60.3,0,69.6,38.6,69.6,70.8v73.2h-49.7v-70.8
					c0-11.1-1.8-30.4-21.7-30.4c-26.3,0-26.9,22.8-26.9,42.1c0,42.1,17,67.3,36.3,96l29.3,43.3c25.2,36.9,36.3,70.2,36.3,101.8
					c0,24.6-1.2,103-81.9,103c-33.4,0-50.9-14-60.3-24.6c-17-19.9-18.1-41.6-18.1-65.5v-68.5H1448.5z"/>
				<path d="M1587.2,455.1V41.9h136.4v51.5h-81.3v121.1h72.6V266h-72V403h80.8v52.1H1587.2z"/>
				<path d="M1844.1,455.1V41.9h136.4v51.5h-81.3v121.1h72.6V266h-72V403h80.8v52.1H1844.1z"/>
				<path d="M2022.6,455.1V41.9h54.4v362.3h90.1v50.9H2022.6z"/>
				<path d="M2193.5,455.1V41.9h136.4v51.5h-81.3v121.1h72.6V266h-72V403h80.8v52.1H2193.5z"/>
				<path d="M2561.6,455.1c0,0,0-263.4-2.3-332.4c-11.1,76.7-45.1,332.4-45.1,332.4h-46.2l-46.8-332.4v332.4h-50.9V41.9h77.8
					l43.3,273.9l40.4-273.9h80.2v413.2H2561.6z"/>
				<path d="M2668.6,455.1V41.9H2805v51.5h-81.3v121.1h72.6V266h-72V403h80.8v52.1H2668.6z"/>
				<path d="M2957.2,455.1l-67.3-303.1c0.6,58.5,5.9,303.1,5.9,303.1h-50.9V41.9h58.5l66.1,281.5c0,0-2.9-255.7-3.5-281.5h51.5
					v413.2H2957.2z"/>
				<path d="M3159,90.5v364.6h-55.6V90.5h-62.6V41.9h182.6v48.6H3159z"/>
				<path d="M3298.9,304.1v75.5c0,26.3,7,39.8,28.1,39.8c25.8,0,26.3-29.8,26.3-51.5c0-48-25.2-78.4-45.7-109.4l-22.2-33.9
					c-16.4-25.2-33.4-55-33.4-105.3c0-43.3,22.8-85.4,83.7-85.4c60.3,0,69.6,38.6,69.6,70.8v73.2h-49.7v-70.8
					c0-11.1-1.8-30.4-21.7-30.4c-26.3,0-26.9,22.8-26.9,42.1c0,42.1,17,67.3,36.3,96l29.3,43.3c25.2,36.9,36.3,70.2,36.3,101.8
					c0,24.6-1.2,103-81.9,103c-33.4,0-50.9-14-60.3-24.6c-17-19.9-18.1-41.6-18.1-65.5v-68.5H3298.9z"/>
				<path d="M3479.4,455.1V254H3450v-26c6.8-0.8,34-3.4,40-38.1h23v265.2H3479.4z"/>
				<path d="M3664.7,397.7c0,26.8-3.8,37.3-14.7,47.2c-11.3,9.8-26.4,12.8-40.7,12.8c-8.3,0-41.9-0.4-51.3-31.7
					c-2.6-8.3-2.6-15.8-2.6-32.1V240c0-23,6.4-54.7,55.5-54.7c49.4,0,53.9,32.4,53.9,56.6V397.7z M3632.2,239.3
					c0-15.5-2.3-28.3-22.3-28.3c-16.2,0-22.3,9.1-22.3,23.8v170.1c0,14,2.3,25.3,22.3,25.3c14.7,0,22.3-6.4,22.3-24.1V239.3z"/>
			</g>
			<path class="st6" d="M261.8,7.1L342,87.3c-82.2,5.6-147.1,74.1-147.1,157.7c0,87.1,70.3,157.7,157.3,158.1l-90.3,90.3L18.7,250.3
				L261.8,7.1L261.8,7.1z M285.8,245.1c0-37.1,30.1-67.2,67.2-67.2c37.1,0,67.2,30.1,67.2,67.2c0,37.1-30.1,67.2-67.2,67.2
				C315.9,312.2,285.8,282.2,285.8,245.1L285.8,245.1z"/>
		</g>
	</g>
	<g class="st2">
		<g class="st3">
			<path class="st0" d="M1359,356.1c0,50.9-16.4,104.2-90.1,104.2c-81.9,0-87.8-65.5-87.8-98.3V154.8c0-49.2,7.6-117,92.5-117
				c68.5,0,85.4,45.1,85.4,101.2v52.7h-54.4v-63.8c0-17-2.3-42.7-33.9-42.7c-27.5,0-34.5,21.1-34.5,45.1v235.3
				c0,38,8.8,47.4,33.4,47.4c31.6,0,34.5-24,34.5-48.6v-80.2h55V356.1z"/>
			<path class="st0" d="M1453.8,41.9v326.6c0,37.5,11.1,48,32.8,48c31,0,33.4-24,33.4-58.5v-316h53.8V355
				c0,77.8-32.8,106.5-89,106.5c-63.8,0-84.3-41.6-84.3-97.1V41.9H1453.8z"/>
			<path class="st0" d="M1718.9,41.9c57.4,0,62.6,22.2,62.6,82.5v51.5c0,31-1.8,57.4-45.1,60.9c36.9,2.9,45.1,18.1,45.1,56.8v74.9
				c0,62.6-5.9,86.6-73.7,86.6h-86.6V41.9H1718.9z M1673.8,215.1h24c24.6,0,30.4-7,30.4-43.9v-41c0-24.6-2.9-39.2-26.9-39.2h-27.5
				V215.1z M1673.8,404.1h28.1c26.3,0,27.5-3.5,27.5-39.2v-65.5c0-24.6-2.9-39.2-26.9-39.2h-28.7V404.1z"/>
			<path class="st0" d="M1954.1,455l-10.5-76.1h-62l-9.4,76.1H1819l58.5-413.2h66.1l63.8,413.2H1954.1z M1910.2,113.9l-22.8,214.8
				h49.2L1910.2,113.9z"/>
			<path class="st0" d="M2080,304.1v75.5c0,26.3,7,39.8,28.1,39.8c25.8,0,26.3-29.8,26.3-51.5c0-48-25.2-78.4-45.7-109.4l-22.2-33.9
				c-16.4-25.2-33.4-55-33.4-105.3c0-43.3,22.8-85.4,83.7-85.4c60.3,0,69.6,38.6,69.6,70.8v73.2h-49.7v-70.8
				c0-11.1-1.8-30.4-21.7-30.4c-26.3,0-26.9,22.8-26.9,42.1c0,42.1,17,67.3,36.3,96l29.3,43.3c25.2,36.9,36.3,70.2,36.3,101.8
				c0,24.6-1.2,103-81.9,103c-33.4,0-50.9-14-60.3-24.6c-17-19.9-18.1-41.6-18.1-65.5v-68.5H2080z"/>
			<path class="st0" d="M2218.6,455V41.9H2355v51.5h-81.3v121.1h72.6V266h-72V403h80.8V455H2218.6z"/>
			<path class="st0" d="M2476.1,455V41.9h54.4v362.3h90.1V455H2476.1z"/>
			<path class="st0" d="M2638.2,455V41.9h136.4v51.5h-81.3v121.1h72.6V266h-72V403h80.8V455H2638.2z"/>
			<path class="st0" d="M2848,455V254h-29.4v-26c6.8-0.8,34-3.4,40-38.1h23V455H2848z"/>
			<path class="st0" d="M3033.2,397.7c0,26.8-3.8,37.3-14.7,47.2c-11.3,9.8-26.4,12.8-40.7,12.8c-8.3,0-41.9-0.4-51.3-31.7
				c-2.6-8.3-2.6-15.8-2.6-32.1V240c0-23,6.4-54.7,55.5-54.7c49.4,0,53.9,32.4,53.9,56.6V397.7z M3000.8,239.3
				c0-15.5-2.3-28.3-22.3-28.3c-16.2,0-22.3,9.1-22.3,23.8v170.1c0,14,2.3,25.3,22.3,25.3c14.7,0,22.3-6.4,22.3-24.1V239.3z"/>
		</g>
		<path class="st5" d="M893.2,7.1l80.2,80.2c-82.2,5.6-147.1,74.1-147.1,157.7c0,87.1,70.3,157.7,157.3,158.1l-90.3,90.3
			L650.1,250.3L893.2,7.1L893.2,7.1z M917.2,245.1c0-37.1,30.1-67.2,67.2-67.2c37.1,0,67.2,30.1,67.2,67.2
			c0,37.1-30.1,67.2-67.2,67.2C947.3,312.2,917.2,282.2,917.2,245.1L917.2,245.1z"/>
	</g>
	<g class="st2">
		<g class="st3">
			<path d="M1359,356.1c0,50.9-16.4,104.2-90.1,104.2c-81.9,0-87.8-65.5-87.8-98.3V154.8c0-49.2,7.6-117,92.5-117
				c68.5,0,85.4,45.1,85.4,101.2v52.7h-54.4v-63.8c0-17-2.3-42.7-33.9-42.7c-27.5,0-34.5,21.1-34.5,45.1v235.3
				c0,38,8.8,47.4,33.4,47.4c31.6,0,34.5-24,34.5-48.6v-80.2h55V356.1z"/>
			<path d="M1453.8,41.9v326.6c0,37.5,11.1,48,32.8,48c31,0,33.4-24,33.4-58.5v-316h53.8V355c0,77.8-32.8,106.5-89,106.5
				c-63.8,0-84.3-41.6-84.3-97.1V41.9H1453.8z"/>
			<path d="M1718.9,41.9c57.4,0,62.6,22.2,62.6,82.5v51.5c0,31-1.8,57.4-45.1,60.9c36.9,2.9,45.1,18.1,45.1,56.8v74.9
				c0,62.6-5.9,86.6-73.7,86.6h-86.6V41.9H1718.9z M1673.8,215.1h24c24.6,0,30.4-7,30.4-43.9v-41c0-24.6-2.9-39.2-26.9-39.2h-27.5
				V215.1z M1673.8,404.1h28.1c26.3,0,27.5-3.5,27.5-39.2v-65.5c0-24.6-2.9-39.2-26.9-39.2h-28.7V404.1z"/>
			<path d="M1954.1,455l-10.5-76.1h-62l-9.4,76.1H1819l58.5-413.2h66.1l63.8,413.2H1954.1z M1910.2,113.9l-22.8,214.8h49.2
				L1910.2,113.9z"/>
			<path d="M2080,304.1v75.5c0,26.3,7,39.8,28.1,39.8c25.8,0,26.3-29.8,26.3-51.5c0-48-25.2-78.4-45.7-109.4l-22.2-33.9
				c-16.4-25.2-33.4-55-33.4-105.3c0-43.3,22.8-85.4,83.7-85.4c60.3,0,69.6,38.6,69.6,70.8v73.2h-49.7v-70.8
				c0-11.1-1.8-30.4-21.7-30.4c-26.3,0-26.9,22.8-26.9,42.1c0,42.1,17,67.3,36.3,96l29.3,43.3c25.2,36.9,36.3,70.2,36.3,101.8
				c0,24.6-1.2,103-81.9,103c-33.4,0-50.9-14-60.3-24.6c-17-19.9-18.1-41.6-18.1-65.5v-68.5H2080z"/>
			<path d="M2218.6,455V41.9H2355v51.5h-81.3v121.1h72.6V266h-72V403h80.8V455H2218.6z"/>
			<path d="M2476.1,455V41.9h54.4v362.3h90.1V455H2476.1z"/>
			<path d="M2638.2,455V41.9h136.4v51.5h-81.3v121.1h72.6V266h-72V403h80.8V455H2638.2z"/>
			<path d="M2848,455V254h-29.4v-26c6.8-0.8,34-3.4,40-38.1h23V455H2848z"/>
			<path d="M3033.2,397.7c0,26.8-3.8,37.3-14.7,47.2c-11.3,9.8-26.4,12.8-40.7,12.8c-8.3,0-41.9-0.4-51.3-31.7
				c-2.6-8.3-2.6-15.8-2.6-32.1V240c0-23,6.4-54.7,55.5-54.7c49.4,0,53.9,32.4,53.9,56.6V397.7z M3000.8,239.3
				c0-15.5-2.3-28.3-22.3-28.3c-16.2,0-22.3,9.1-22.3,23.8v170.1c0,14,2.3,25.3,22.3,25.3c14.7,0,22.3-6.4,22.3-24.1V239.3z"/>
		</g>
		<path class="st4" d="M893.2,7.1l80.2,80.2c-82.2,5.6-147.1,74.1-147.1,157.7c0,87.1,70.3,157.7,157.3,158.1l-90.3,90.3
			L650.1,250.3L893.2,7.1L893.2,7.1z M917.2,245.1c0-37.1,30.1-67.2,67.2-67.2c37.1,0,67.2,30.1,67.2,67.2
			c0,37.1-30.1,67.2-67.2,67.2C947.3,312.2,917.2,282.2,917.2,245.1L917.2,245.1z"/>
	</g>
	<g class="st2">
		<g class="st3">
			<path class="st0" d="M1366.3,356.1c0,50.9-16.4,104.2-90.1,104.2c-81.9,0-87.8-65.5-87.8-98.3V154.8c0-49.2,7.6-117,92.5-117
				c68.5,0,85.4,45.1,85.4,101.2v52.7h-54.4v-63.8c0-17-2.3-42.7-33.9-42.7c-27.5,0-34.5,21.1-34.5,45.1v235.3
				c0,38,8.8,47.4,33.4,47.4c31.6,0,34.5-24,34.5-48.6v-80.2h55V356.1z"/>
			<path class="st0" d="M1461.1,41.9v326.6c0,37.5,11.1,48,32.8,48c31,0,33.4-24,33.4-58.5v-316h53.8V355
				c0,77.8-32.8,106.5-89,106.5c-63.8,0-84.3-41.6-84.3-97.1V41.9H1461.1z"/>
			<path class="st0" d="M1726.2,41.9c57.4,0,62.6,22.2,62.6,82.5v51.5c0,31-1.8,57.4-45.1,60.9c36.9,2.9,45.1,18.1,45.1,56.8v74.9
				c0,62.6-5.9,86.6-73.7,86.6h-86.6V41.9H1726.2z M1681.1,215.1h24c24.6,0,30.4-7,30.4-43.9v-41c0-24.6-2.9-39.2-26.9-39.2h-27.5
				V215.1z M1681.1,404.1h28.1c26.3,0,27.5-3.5,27.5-39.2v-65.5c0-24.6-2.9-39.2-26.9-39.2h-28.7V404.1z"/>
			<path class="st0" d="M1961.5,455l-10.5-76.1h-62l-9.4,76.1h-53.3l58.5-413.2h66.1l63.8,413.2H1961.5z M1917.6,113.9l-22.8,214.8
				h49.2L1917.6,113.9z"/>
			<path class="st0" d="M2087.3,304.1v75.5c0,26.3,7,39.8,28.1,39.8c25.8,0,26.3-29.8,26.3-51.5c0-48-25.2-78.4-45.7-109.4
				l-22.2-33.9c-16.4-25.2-33.4-55-33.4-105.3c0-43.3,22.8-85.4,83.7-85.4c60.3,0,69.6,38.6,69.6,70.8v73.1H2144v-70.8
				c0-11.1-1.8-30.4-21.7-30.4c-26.3,0-26.9,22.8-26.9,42.1c0,42.1,17,67.3,36.3,96l29.3,43.3c25.2,36.9,36.3,70.2,36.3,101.8
				c0,24.6-1.2,103-81.9,103c-33.4,0-50.9-14-60.3-24.6c-17-19.9-18.1-41.6-18.1-65.5v-68.5H2087.3z"/>
			<path class="st0" d="M2226,455V41.9h136.4v51.5H2281v121.1h72.6V266h-72V403h80.8V455H2226z"/>
			<path class="st0" d="M2608.7,455l-10.5-76.1h-62l-9.4,76.1h-53.3L2532,41.9h66.1l63.8,413.2H2608.7z M2564.8,113.9L2542,328.6
				h49.2L2564.8,113.9z"/>
			<path class="st0" d="M2698.2,455V41.9h53.8V455H2698.2z"/>
			<path class="st0" d="M2840.7,455V254h-29.4v-26c6.8-0.8,34-3.4,40-38.1h23V455H2840.7z"/>
			<path class="st0" d="M3025.9,397.7c0,26.8-3.8,37.3-14.7,47.2c-11.3,9.8-26.4,12.8-40.7,12.8c-8.3,0-41.9-0.4-51.3-31.7
				c-2.6-8.3-2.6-15.8-2.6-32.1V240c0-23,6.4-54.7,55.5-54.7c49.4,0,53.9,32.4,53.9,56.6V397.7z M2993.5,239.2
				c0-15.5-2.3-28.3-22.3-28.3c-16.2,0-22.3,9.1-22.3,23.8v170.1c0,14,2.3,25.3,22.3,25.3c14.7,0,22.3-6.4,22.3-24.1V239.2z"/>
		</g>
		<path class="st5" d="M900.6,7.1l80.2,80.2c-82.2,5.6-147.1,74.1-147.1,157.7c0,87.1,70.3,157.7,157.3,158.1l-90.3,90.3
			L657.4,250.3L900.6,7.1L900.6,7.1z M924.5,245.1c0-37.1,30.1-67.2,67.2-67.2c37.1,0,67.2,30.1,67.2,67.2
			c0,37.1-30.1,67.2-67.2,67.2C954.6,312.2,924.5,282.2,924.5,245.1L924.5,245.1z"/>
	</g>
	<g class="st2">
		<g class="st3">
			<path d="M1366.3,356.1c0,50.9-16.4,104.2-90.1,104.2c-81.9,0-87.8-65.5-87.8-98.3V154.8c0-49.2,7.6-117,92.5-117
				c68.5,0,85.4,45.1,85.4,101.2v52.7h-54.4v-63.8c0-17-2.3-42.7-33.9-42.7c-27.5,0-34.5,21.1-34.5,45.1v235.3
				c0,38,8.8,47.4,33.4,47.4c31.6,0,34.5-24,34.5-48.6v-80.2h55V356.1z"/>
			<path d="M1461.1,41.9v326.6c0,37.5,11.1,48,32.8,48c31,0,33.4-24,33.4-58.5v-316h53.8V355c0,77.8-32.8,106.5-89,106.5
				c-63.8,0-84.3-41.6-84.3-97.1V41.9H1461.1z"/>
			<path d="M1726.2,41.9c57.4,0,62.6,22.2,62.6,82.5v51.5c0,31-1.8,57.4-45.1,60.9c36.9,2.9,45.1,18.1,45.1,56.8v74.9
				c0,62.6-5.9,86.6-73.7,86.6h-86.6V41.9H1726.2z M1681.1,215.1h24c24.6,0,30.4-7,30.4-43.9v-41c0-24.6-2.9-39.2-26.9-39.2h-27.5
				V215.1z M1681.1,404.1h28.1c26.3,0,27.5-3.5,27.5-39.2v-65.5c0-24.6-2.9-39.2-26.9-39.2h-28.7V404.1z"/>
			<path d="M1961.5,455l-10.5-76.1h-62l-9.4,76.1h-53.3l58.5-413.2h66.1l63.8,413.2H1961.5z M1917.6,113.9l-22.8,214.8h49.2
				L1917.6,113.9z"/>
			<path d="M2087.3,304.1v75.5c0,26.3,7,39.8,28.1,39.8c25.8,0,26.3-29.8,26.3-51.5c0-48-25.2-78.4-45.7-109.4l-22.2-33.9
				c-16.4-25.2-33.4-55-33.4-105.3c0-43.3,22.8-85.4,83.7-85.4c60.3,0,69.6,38.6,69.6,70.8v73.1H2144v-70.8
				c0-11.1-1.8-30.4-21.7-30.4c-26.3,0-26.9,22.8-26.9,42.1c0,42.1,17,67.3,36.3,96l29.3,43.3c25.2,36.9,36.3,70.2,36.3,101.8
				c0,24.6-1.2,103-81.9,103c-33.4,0-50.9-14-60.3-24.6c-17-19.9-18.1-41.6-18.1-65.5v-68.5H2087.3z"/>
			<path d="M2226,455V41.9h136.4v51.5H2281v121.1h72.6V266h-72V403h80.8V455H2226z"/>
			<path d="M2608.7,455l-10.5-76.1h-62l-9.4,76.1h-53.3L2532,41.9h66.1l63.8,413.2H2608.7z M2564.8,113.9L2542,328.6h49.2
				L2564.8,113.9z"/>
			<path d="M2698.2,455V41.9h53.8V455H2698.2z"/>
			<path d="M2840.7,455V254h-29.4v-26c6.8-0.8,34-3.4,40-38.1h23V455H2840.7z"/>
			<path d="M3025.9,397.7c0,26.8-3.8,37.3-14.7,47.2c-11.3,9.8-26.4,12.8-40.7,12.8c-8.3,0-41.9-0.4-51.3-31.7
				c-2.6-8.3-2.6-15.8-2.6-32.1V240c0-23,6.4-54.7,55.5-54.7c49.4,0,53.9,32.4,53.9,56.6V397.7z M2993.5,239.2
				c0-15.5-2.3-28.3-22.3-28.3c-16.2,0-22.3,9.1-22.3,23.8v170.1c0,14,2.3,25.3,22.3,25.3c14.7,0,22.3-6.4,22.3-24.1V239.2z"/>
		</g>
		<path class="st4" d="M900.6,7.1l80.2,80.2c-82.2,5.6-147.1,74.1-147.1,157.7c0,87.1,70.3,157.7,157.3,158.1l-90.3,90.3
			L657.4,250.3L900.6,7.1L900.6,7.1z M924.5,245.1c0-37.1,30.1-67.2,67.2-67.2c37.1,0,67.2,30.1,67.2,67.2
			c0,37.1-30.1,67.2-67.2,67.2C954.6,312.2,924.5,282.2,924.5,245.1L924.5,245.1z"/>
	</g>
</g>
</svg>
